<svg width="25" height="25" viewBox="0 0 25 25" fill="none" xmlns="http://www.w3.org/2000/svg">
<path d="M9.375 11.25H8.125V21.25H9.375V11.25Z" fill="currentColor"/>
<path d="M13.125 11.25H11.875V21.25H13.125V11.25Z" fill="currentColor"/>
<path d="M16.875 11.25H15.625V21.25H16.875V11.25Z" fill="currentColor"/>
<path d="M20.625 2.5H15.625V1.25C15.625 0.55957 15.0654 0 14.375 0H10.625C9.93457 0 9.375 0.55957 9.375 1.25V2.5H4.375C3.68457 2.5 3.125 3.05957 3.125 3.75V6.25C3.125 6.94043 3.68457 7.5 4.375 7.5V23.75C4.375 24.4404 4.93457 25 5.625 25H19.375C20.0654 25 20.625 24.4404 20.625 23.75V7.5C21.3154 7.5 21.875 6.94043 21.875 6.25V3.75C21.875 3.05957 21.3154 2.5 20.625 2.5ZM10.625 1.25H14.375V2.5H10.625V1.25ZM19.375 23.75H5.625V7.5H19.375V23.75ZM20.625 6.25H4.375V3.75H20.625V6.25Z" fill="currentColor"/>
</svg>
